<svg width="438" height="157" viewBox="0 0 438 157" fill="none" xmlns="http://www.w3.org/2000/svg">
<path d="M328.724 124.796C351.218 124.796 365.846 107.408 365.846 87.398C365.846 67.388 351.218 50 328.724 50C306.368 50 291.602 67.388 291.602 87.398C291.602 107.408 306.092 124.796 328.724 124.796ZM307.196 87.536C307.196 73.736 316.856 62.972 328.724 62.972C340.73 62.972 350.252 73.598 350.252 87.398C350.252 101.198 340.73 111.824 328.724 111.824C316.718 111.824 307.196 101.474 307.196 87.536Z" fill="#3166FF"/>
<path d="M409.049 110.597C408.707 109.358 407.301 108.755 406.115 109.25C403.976 110.143 401.004 111.076 398.032 111.076C393.892 111.076 390.442 108.868 390.442 103.762V63.466H400.309C403.548 63.466 406.174 60.8402 406.174 57.601C406.174 54.3619 403.548 51.736 400.309 51.736H390.442V34C390.442 30.6863 387.755 28 384.442 28H381.262C377.948 28 375.262 30.6863 375.262 34V51.736H371.467C368.227 51.736 365.602 54.3619 365.602 57.601C365.602 60.8402 368.227 63.466 371.467 63.466H375.262V108.592C375.262 120.184 383.266 125.014 392.65 125.014C399.574 125.014 405.963 122.662 410.123 120.875C411.031 120.485 411.5 119.481 411.237 118.529L409.049 110.597Z" fill="#3166FF"/>
<path d="M437.782 124.74V58.566C437.782 55.2523 435.095 52.566 431.782 52.566H428.602C425.288 52.566 422.602 55.2523 422.602 58.566V124.74H437.782ZM431.782 40.698C435.095 40.698 437.782 38.0117 437.782 34.698V30C437.782 26.6863 435.095 24 431.782 24H428.602C425.288 24 422.602 26.6863 422.602 30V34.698C422.602 38.0117 425.288 40.698 428.602 40.698H431.782Z" fill="#3166FF"/>
<path d="M114.972 79.2679C116.998 78.5338 119.255 79.3496 120.355 81.2128L128.366 94.7875C129.951 97.4728 128.419 100.929 125.376 101.534L7.84113 124.927C3.94884 125.702 2.39915 120.072 6.13223 118.719L114.972 79.2679Z" fill="#FFBEA9"/>
<path d="M136.988 110.071C136.073 108.531 134.326 107.686 132.55 107.926L7.00391 125L137.391 123.89C140.836 123.858 142.95 120.103 141.19 117.141L136.988 110.071Z" fill="#0000FF"/>
<path d="M68.2891 3.87669C70.0089 0.89338 74.3152 0.895958 76.0314 3.88133L110.953 64.6284C112.211 66.8166 111.407 69.6117 109.179 70.7976L8.28155 124.499C4.32034 126.607 0.0720275 122.213 2.31313 118.325L68.2891 3.87669Z" fill="#3166FF"/>
<path d="M285.864 79.394C285.864 63.524 281.586 50 264.198 50C251.502 50 240.324 56.072 234.804 65.732V57.242C234.804 53.9283 232.118 51.242 228.804 51.242H227.004C223.69 51.242 221.004 53.9283 221.004 57.242L221.004 123.416H236.184V80.498C239.358 70.7 249.018 63.524 257.85 63.524C266.13 63.524 270.684 69.458 270.684 82.982V123.416H285.864V79.394Z" fill="#3166FF"/>
<path d="M175.818 125.01C170.458 125.01 165.969 124.027 162.351 122.062C158.733 120.052 155.986 117.417 154.11 114.156C152.279 110.851 151.363 107.233 151.363 103.302C151.363 99.6392 152.011 96.4232 153.306 93.6539C154.602 90.8846 156.522 88.5396 159.068 86.6189C161.614 84.6535 164.741 83.0679 168.448 81.8619C171.664 80.9239 175.305 80.0975 179.369 79.3829C183.434 78.6682 187.7 77.9982 192.166 77.3729C196.678 76.7475 201.144 76.1222 205.566 75.4969L200.474 78.3109C200.564 72.6382 199.358 68.4395 196.856 65.7149C194.4 62.9455 190.156 61.5609 184.126 61.5609C180.33 61.5609 176.846 62.4542 173.674 64.2409C171.283 65.5543 169.438 67.528 168.139 70.1619C167.406 71.6478 165.758 72.5559 164.174 72.0686L156.792 69.7971C155.228 69.3162 154.323 67.664 154.921 66.1418C156.851 61.2261 159.931 57.2201 164.16 54.1239C169.208 50.4612 175.908 48.6299 184.26 48.6299C190.737 48.6299 196.365 49.7466 201.144 51.9799C205.968 54.1685 209.497 57.6526 211.73 62.4319C212.892 64.7992 213.606 67.3006 213.874 69.9359C214.142 72.5712 214.276 75.4076 214.276 78.4449V123.5H201.881V106.451L204.293 108.595C201.301 114.134 197.482 118.265 192.836 120.99C188.236 123.67 182.563 125.01 175.818 125.01ZM178.297 113.553C182.273 113.553 185.69 112.861 188.548 111.476C191.407 110.047 193.707 108.238 195.449 106.049C197.191 103.86 198.33 101.582 198.866 99.2149C199.626 97.0709 200.05 94.6589 200.139 91.9789C200.273 89.2989 200.34 87.1549 200.34 85.5469L204.896 87.2219C200.474 87.8919 196.454 88.4949 192.836 89.0309C189.218 89.5669 185.935 90.1029 182.987 90.6389C180.084 91.1302 177.493 91.7332 175.215 92.4479C173.295 93.1179 171.575 93.9219 170.056 94.8599C168.582 95.7979 167.399 96.9369 166.505 98.2769C165.657 99.6169 165.232 101.247 165.232 103.168C165.232 105.044 165.701 106.786 166.639 108.394C167.577 109.957 169.007 111.208 170.927 112.146C172.848 113.084 175.305 113.553 178.297 113.553Z" fill="#3166FF"/>
</svg>
