<svg width="16" height="16" viewBox="0 0 16 16" fill="none" xmlns="http://www.w3.org/2000/svg">
<circle cx="7.8964" cy="7.92179" r="6.84989" stroke="#4242FF" stroke-width="0.913319"/>
<path d="M7.21358 9.22423C7.21358 9.06584 7.22568 8.91735 7.24988 8.77876C7.27628 8.64017 7.32467 8.50819 7.39507 8.3828C7.45446 8.26401 7.52376 8.16831 7.60295 8.09572C7.68435 8.02092 7.77234 7.94833 7.86693 7.87794C7.96372 7.80534 8.06492 7.71295 8.17051 7.60076C8.2585 7.50397 8.31679 7.40607 8.34539 7.30708C8.37619 7.20809 8.39159 7.1014 8.39159 6.98701C8.39159 6.90342 8.38169 6.82532 8.36189 6.75273C8.34209 6.68013 8.3091 6.61744 8.2629 6.56464C8.1925 6.47665 8.10341 6.41505 7.99562 6.37986C7.88783 6.34246 7.77564 6.32376 7.65905 6.32376C7.55346 6.32376 7.45226 6.33806 7.35547 6.36666C7.26088 6.39526 7.18169 6.43925 7.11789 6.49865C7.0497 6.55584 6.9991 6.62734 6.9661 6.71313C6.93531 6.79672 6.92101 6.88802 6.92321 6.98701H6.19727C6.21486 6.78022 6.26766 6.58664 6.35565 6.40625C6.44365 6.22587 6.56244 6.07958 6.71202 5.96739C6.83961 5.8662 6.9848 5.7914 7.14759 5.74301C7.31038 5.69241 7.47316 5.66711 7.63595 5.66711C7.86913 5.66711 8.08911 5.70341 8.2959 5.77601C8.50488 5.8486 8.67867 5.96629 8.81725 6.12908C8.91845 6.24347 8.99434 6.37436 9.04494 6.52175C9.09773 6.66693 9.12413 6.81762 9.12413 6.97381C9.12413 7.18279 9.07903 7.37638 8.98884 7.55456C8.90085 7.73275 8.78756 7.89553 8.64897 8.04292C8.57637 8.11992 8.50268 8.19031 8.42789 8.25411C8.35309 8.3157 8.2838 8.3762 8.22 8.43559C8.15621 8.49499 8.10341 8.55988 8.06162 8.63028C8.00222 8.73147 7.96812 8.82276 7.95932 8.90415C7.95052 8.98335 7.94612 9.09004 7.94612 9.22423H7.21358ZM7.21688 10.5144V9.71589H7.94612V10.5144H7.21688Z" fill="#4242FF"/>
</svg>
