<svg width="354" height="241" viewBox="0 0 354 241" fill="none" xmlns="http://www.w3.org/2000/svg">
<rect width="354" height="241" rx="8" fill="#E9F0FE"/>
<circle cx="26.5" cy="45.5" r="6.5" fill="white"/>
<mask id="mask0_386_706" style="mask-type:alpha" maskUnits="userSpaceOnUse" x="0" y="0" width="354" height="241">
<rect width="354" height="241" rx="8" fill="#E9F0FE"/>
</mask>
<g mask="url(#mask0_386_706)">
<path d="M280.5 249.612V250.112H281H339.469H339.969V249.612V236.219V235.719H339.469H304.311L325.108 217.302C325.108 217.302 325.108 217.301 325.109 217.301C328.341 214.463 331.048 211.875 333.225 209.539C335.467 207.177 337.155 204.588 338.281 201.772C339.413 198.942 339.969 195.472 339.969 191.379C339.969 185.757 338.712 180.771 336.185 176.437C333.662 172.072 330.194 168.665 325.789 166.222C321.381 163.737 316.418 162.5 310.913 162.5C304.985 162.5 299.732 163.674 295.166 166.037L295.165 166.038C290.641 168.4 287.072 171.727 284.467 176.015L284.467 176.015L284.465 176.018C281.894 180.316 280.618 185.344 280.618 191.084V191.584H281.118H295.75H296.265L296.25 191.069C296.174 188.563 296.742 186.234 297.956 184.072C299.171 181.907 300.859 180.181 303.027 178.887L303.029 178.886C305.225 177.561 307.749 176.893 310.618 176.893C313.33 176.893 315.696 177.522 317.732 178.767L317.736 178.769C319.822 180.02 321.451 181.724 322.628 183.889L322.63 183.892C323.803 186.012 324.396 188.444 324.396 191.202C324.396 193.197 323.869 195.285 322.795 197.472C321.733 199.633 319.818 201.963 317.012 204.457L317.011 204.458L280.667 236.849L280.5 236.998V237.222V249.612Z" stroke="#BACAEB"/>
</g>
</svg>
