<svg width="355" height="241" viewBox="0 0 355 241" fill="none" xmlns="http://www.w3.org/2000/svg">
<rect width="355" height="241" rx="8" fill="#E9F0FE"/>
<circle cx="25.5" cy="45.5" r="6.5" fill="white"/>
<mask id="mask0_386_713" style="mask-type:alpha" maskUnits="userSpaceOnUse" x="0" y="19" width="355" height="222">
<rect y="19" width="355" height="222" rx="8" fill="#E9F0FE"/>
</mask>
<g mask="url(#mask0_386_713)">
<path d="M289.589 240.39L289.591 240.393C292.431 243.472 295.772 245.853 299.612 247.533C303.453 249.214 307.533 250.053 311.848 250.053C317.238 250.053 322.161 248.814 326.606 246.332L326.607 246.331C331.085 243.812 334.649 240.389 337.29 236.068C339.977 231.736 341.317 226.845 341.317 221.41C341.317 216.619 340.318 212.197 338.316 208.151C336.351 204.101 333.501 200.79 329.773 198.225C327.293 196.5 324.467 195.276 321.302 194.547L339.748 176.812L339.901 176.665V176.452V163V162.5H339.401H287.304H286.804V163V176.393V176.893H287.304H321.126L297.599 197.017L297.283 197.287L297.491 197.648L303.981 208.858L304.227 209.281L304.656 209.045C305.764 208.433 306.909 207.956 308.091 207.613C309.306 207.271 310.538 207.101 311.789 207.101C315.954 207.101 319.32 208.471 321.93 211.195C324.548 213.927 325.862 217.32 325.862 221.41C325.862 224.083 325.252 226.495 324.039 228.657C322.824 230.782 321.156 232.469 319.028 233.723C316.909 234.972 314.501 235.601 311.789 235.601L311.783 235.601C308.742 235.639 305.953 234.786 303.402 233.036C300.91 231.26 299.182 228.744 298.227 225.459L298.09 224.988L297.616 225.116L283.869 228.833L283.376 228.967L283.52 229.458C284.76 233.656 286.782 237.303 289.589 240.39Z" stroke="#BACAEB"/>
</g>
</svg>
