<svg width="32" height="32" viewBox="0 0 32 32" fill="none" xmlns="http://www.w3.org/2000/svg">
<path d="M15.6928 0.945383C15.7895 0.647817 16.2105 0.647816 16.3072 0.945383L16.3847 1.18392C16.4279 1.31699 16.5519 1.40709 16.6918 1.40709H16.9427C17.2555 1.40709 17.3856 1.80747 17.1325 1.99137L16.9296 2.13879C16.8164 2.22104 16.769 2.36682 16.8123 2.4999L16.8898 2.73843C16.9865 3.036 16.6459 3.28344 16.3928 3.09954L16.1898 2.95211C16.0766 2.86987 15.9234 2.86987 15.8102 2.95211L15.6072 3.09954C15.3541 3.28344 15.0135 3.036 15.1102 2.73843L15.1877 2.4999C15.231 2.36682 15.1836 2.22104 15.0704 2.13879L14.8675 1.99137C14.6144 1.80747 14.7445 1.40709 15.0573 1.40709H15.3081C15.4481 1.40709 15.5721 1.31699 15.6153 1.18392L15.6928 0.945383Z" fill="white"/>
<path d="M15.6928 28.0969C15.7895 27.7993 16.2105 27.7993 16.3072 28.0969L16.3847 28.3354C16.4279 28.4685 16.5519 28.5586 16.6918 28.5586H16.9427C17.2555 28.5586 17.3856 28.959 17.1325 29.1429L16.9296 29.2903C16.8164 29.3725 16.769 29.5183 16.8123 29.6514L16.8898 29.8899C16.9865 30.1875 16.6459 30.4349 16.3928 30.251L16.1898 30.1036C16.0766 30.0214 15.9234 30.0214 15.8102 30.1036L15.6072 30.251C15.3541 30.4349 15.0135 30.1875 15.1102 29.8899L15.1877 29.6514C15.231 29.5183 15.1836 29.3725 15.0704 29.2903L14.8675 29.1429C14.6144 28.959 14.7445 28.5586 15.0573 28.5586H15.3081C15.4481 28.5586 15.5721 28.4685 15.6153 28.3354L15.6928 28.0969Z" fill="white"/>
<path d="M22.6746 26.3514C22.7713 26.0538 23.1923 26.0538 23.289 26.3514L23.3665 26.5899C23.4097 26.723 23.5337 26.8131 23.6737 26.8131H23.9245C24.2374 26.8131 24.3674 27.2135 24.1143 27.3974L23.9114 27.5448C23.7982 27.627 23.7508 27.7728 23.7941 27.9059L23.8716 28.1444C23.9683 28.442 23.6277 28.6894 23.3746 28.5055L23.1717 28.3581C23.0585 28.2759 22.9052 28.2759 22.792 28.3581L22.5891 28.5055C22.3359 28.6894 21.9954 28.442 22.092 28.1444L22.1696 27.9059C22.2128 27.7728 22.1654 27.627 22.0522 27.5448L21.8493 27.3974C21.5962 27.2135 21.7263 26.8131 22.0392 26.8131H22.29C22.4299 26.8131 22.5539 26.723 22.5971 26.5899L22.6746 26.3514Z" fill="white"/>
<path d="M9.32536 26.3514C9.22867 26.0538 8.8077 26.0538 8.71101 26.3514L8.63351 26.5899C8.59027 26.723 8.46626 26.8131 8.32633 26.8131H8.07552C7.76264 26.8131 7.63255 27.2135 7.88568 27.3974L8.08859 27.5448C8.20179 27.627 8.24916 27.7728 8.20592 27.9059L8.12841 28.1444C8.03173 28.442 8.37231 28.6894 8.62543 28.5055L8.82834 28.3581C8.94154 28.2759 9.09483 28.2759 9.20803 28.3581L9.41094 28.5055C9.66406 28.6894 10.0046 28.442 9.90796 28.1444L9.83045 27.9059C9.78721 27.7728 9.83458 27.627 9.94778 27.5448L10.1507 27.3974C10.4038 27.2135 10.2737 26.8131 9.96085 26.8131H9.71004C9.57011 26.8131 9.4461 26.723 9.40286 26.5899L9.32536 26.3514Z" fill="white"/>
<path d="M27.7171 21.309C27.8138 21.0115 28.2347 21.0115 28.3314 21.309L28.4089 21.5476C28.4522 21.6806 28.5762 21.7707 28.7161 21.7707H28.9669C29.2798 21.7707 29.4099 22.1711 29.1567 22.355L28.9538 22.5024C28.8406 22.5847 28.7933 22.7305 28.8365 22.8635L28.914 23.1021C29.0107 23.3996 28.6701 23.6471 28.417 23.4632L28.2141 23.3158C28.1009 23.2335 27.9476 23.2335 27.8344 23.3158L27.6315 23.4632C27.3784 23.6471 27.0378 23.3996 27.1345 23.1021L27.212 22.8635C27.2552 22.7305 27.2078 22.5847 27.0946 22.5024L26.8917 22.355C26.6386 22.1711 26.7687 21.7707 27.0816 21.7707H27.3324C27.4723 21.7707 27.5963 21.6806 27.6396 21.5476L27.7171 21.309Z" fill="white"/>
<path d="M4.28293 21.309C4.18624 21.0115 3.76527 21.0115 3.66858 21.309L3.59108 21.5476C3.54784 21.6806 3.42383 21.7707 3.2839 21.7707H3.03309C2.72021 21.7707 2.59012 22.1711 2.84325 22.355L3.04616 22.5024C3.15936 22.5847 3.20673 22.7305 3.16349 22.8635L3.08598 23.1021C2.9893 23.3996 3.32988 23.6471 3.583 23.4632L3.78591 23.3158C3.89911 23.2335 4.0524 23.2335 4.1656 23.3158L4.36851 23.4632C4.62163 23.6471 4.96221 23.3996 4.86553 23.1021L4.78802 22.8635C4.74478 22.7305 4.79215 22.5847 4.90535 22.5024L5.10826 22.355C5.36139 22.1711 5.2313 21.7707 4.91842 21.7707H4.66761C4.52768 21.7707 4.40367 21.6806 4.36043 21.5476L4.28293 21.309Z" fill="white"/>
<path d="M29.6565 14.5211C29.7531 14.2235 30.1741 14.2235 30.2708 14.5211L30.3483 14.7596C30.3915 14.8927 30.5156 14.9828 30.6555 14.9828H30.9063C31.2192 14.9828 31.3493 15.3831 31.0961 15.5671L30.8932 15.7145C30.78 15.7967 30.7327 15.9425 30.7759 16.0756L30.8534 16.3141C30.9501 16.6117 30.6095 16.8591 30.3564 16.6752L30.1535 16.5278C30.0403 16.4456 29.887 16.4456 29.7738 16.5278L29.5709 16.6752C29.3178 16.8591 28.9772 16.6117 29.0739 16.3141L29.1514 16.0756C29.1946 15.9425 29.1472 15.7967 29.034 15.7145L28.8311 15.5671C28.578 15.3831 28.7081 14.9828 29.021 14.9828H29.2718C29.4117 14.9828 29.5357 14.8927 29.579 14.7596L29.6565 14.5211Z" fill="white"/>
<path d="M2.34354 14.5211C2.24685 14.2235 1.82588 14.2235 1.72919 14.5211L1.65169 14.7596C1.60845 14.8927 1.48444 14.9828 1.34451 14.9828H1.0937C0.780822 14.9828 0.650732 15.3831 0.903857 15.5671L1.10677 15.7145C1.21997 15.7967 1.26734 15.9425 1.2241 16.0756L1.14659 16.3141C1.04991 16.6117 1.39048 16.8591 1.64361 16.6752L1.84652 16.5278C1.95972 16.4456 2.11301 16.4456 2.22621 16.5278L2.42912 16.6752C2.68224 16.8591 3.02282 16.6117 2.92613 16.3141L2.84863 16.0756C2.80539 15.9425 2.85276 15.7967 2.96596 15.7145L3.16887 15.5671C3.42199 15.3831 3.29191 14.9828 2.97903 14.9828H2.72822C2.58829 14.9828 2.46428 14.8927 2.42104 14.7596L2.34354 14.5211Z" fill="white"/>
<path d="M27.7171 7.73335C27.8138 7.43578 28.2347 7.43578 28.3314 7.73335L28.4089 7.97188C28.4522 8.10496 28.5762 8.19506 28.7161 8.19506H28.9669C29.2798 8.19506 29.4099 8.59543 29.1567 8.77934L28.9538 8.92676C28.8406 9.009 28.7933 9.15479 28.8365 9.28786L28.914 9.5264C29.0107 9.82396 28.6701 10.0714 28.417 9.8875L28.2141 9.74008C28.1009 9.65783 27.9476 9.65783 27.8344 9.74008L27.6315 9.8875C27.3784 10.0714 27.0378 9.82396 27.1345 9.5264L27.212 9.28786C27.2552 9.15479 27.2078 9.009 27.0946 8.92676L26.8917 8.77934C26.6386 8.59543 26.7687 8.19506 27.0816 8.19506H27.3324C27.4723 8.19506 27.5963 8.10496 27.6396 7.97188L27.7171 7.73335Z" fill="white"/>
<path d="M4.28293 7.73335C4.18624 7.43578 3.76527 7.43578 3.66858 7.73335L3.59108 7.97188C3.54784 8.10496 3.42383 8.19506 3.2839 8.19506H3.03309C2.72021 8.19506 2.59012 8.59543 2.84325 8.77934L3.04616 8.92676C3.15936 9.009 3.20673 9.15479 3.16349 9.28786L3.08598 9.5264C2.9893 9.82396 3.32988 10.0714 3.583 9.8875L3.78591 9.74008C3.89911 9.65783 4.0524 9.65783 4.1656 9.74008L4.36851 9.8875C4.62163 10.0714 4.96221 9.82396 4.86553 9.5264L4.78802 9.28786C4.74478 9.15479 4.79215 9.009 4.90535 8.92676L5.10826 8.77934C5.36139 8.59543 5.2313 8.19506 4.91842 8.19506H4.66761C4.52768 8.19506 4.40367 8.10496 4.36043 7.97188L4.28293 7.73335Z" fill="white"/>
<path d="M22.6746 2.49677C22.7713 2.19921 23.1923 2.19921 23.289 2.49677L23.3665 2.73531C23.4097 2.86839 23.5337 2.95848 23.6737 2.95848H23.9245C24.2374 2.95848 24.3674 3.35886 24.1143 3.54276L23.9114 3.69019C23.7982 3.77243 23.7508 3.91821 23.7941 4.05129L23.8716 4.28983C23.9683 4.58739 23.6277 4.83484 23.3746 4.65093L23.1717 4.50351C23.0585 4.42126 22.9052 4.42126 22.792 4.50351L22.5891 4.65093C22.3359 4.83484 21.9954 4.58739 22.092 4.28983L22.1696 4.05129C22.2128 3.91821 22.1654 3.77243 22.0522 3.69019L21.8493 3.54276C21.5962 3.35886 21.7263 2.95848 22.0392 2.95848H22.29C22.4299 2.95848 22.5539 2.86839 22.5971 2.73531L22.6746 2.49677Z" fill="white"/>
<path d="M9.32536 2.49677C9.22867 2.19921 8.8077 2.19921 8.71101 2.49677L8.63351 2.73531C8.59027 2.86839 8.46626 2.95848 8.32633 2.95848H8.07552C7.76264 2.95848 7.63255 3.35886 7.88568 3.54276L8.08859 3.69019C8.20179 3.77243 8.24916 3.91821 8.20592 4.05129L8.12841 4.28983C8.03173 4.58739 8.37231 4.83484 8.62543 4.65093L8.82834 4.50351C8.94154 4.42126 9.09483 4.42126 9.20803 4.50351L9.41094 4.65093C9.66406 4.83484 10.0046 4.58739 9.90796 4.28983L9.83045 4.05129C9.78721 3.91821 9.83458 3.77243 9.94778 3.69019L10.1507 3.54276C10.4038 3.35886 10.2737 2.95848 9.96085 2.95848H9.71004C9.57011 2.95848 9.4461 2.86839 9.40286 2.73531L9.32536 2.49677Z" fill="white"/>
</svg>
